<svg width="80" height="81" viewBox="0 0 80 81" fill="none" xmlns="http://www.w3.org/2000/svg">
<path d="M75 7.49522L54.9825 7.4953V2.51163C54.9825 1.13006 53.8638 0.0110474 52.4825 0.0110474C51.1013 0.0110474 49.9825 1.13006 49.9825 2.51163V7.49405H29.9825V2.51163C29.9825 1.13006 28.8638 0.0110474 27.4825 0.0110474C26.1013 0.0110474 24.9825 1.13006 24.9825 2.51163V7.49405H5C2.23875 7.49405 0 9.73333 0 12.4952V75.0099C0 77.7717 2.23875 80.011 5 80.011H75C77.7613 80.011 80 77.7717 80 75.0099V12.4952C80 9.7345 77.7613 7.49522 75 7.49522V7.49522ZM75 75.0099H5V12.4952H24.9825V15.0146C24.9825 16.3961 26.1013 17.5151 27.4825 17.5151C28.8638 17.5151 29.9825 16.3961 29.9825 15.0146V12.4965H49.9825V15.0158C49.9825 16.3974 51.1013 17.5164 52.4825 17.5164C53.8638 17.5164 54.9825 16.3974 54.9825 15.0158V12.4965H75V75.0099ZM57.5 40.0028H62.5C63.88 40.0028 65 38.8826 65 37.5023V32.5011C65 31.1208 63.88 30.0005 62.5 30.0005H57.5C56.12 30.0005 55 31.1208 55 32.5011V37.5023C55 38.8826 56.12 40.0028 57.5 40.0028ZM57.5 60.0063H62.5C63.88 60.0063 65 58.8873 65 57.5057V52.5045C65 51.1242 63.88 50.0039 62.5 50.0039H57.5C56.12 50.0039 55 51.1242 55 52.5045V57.5057C55 58.8885 56.12 60.0063 57.5 60.0063ZM42.5 50.0039H37.5C36.12 50.0039 35 51.1242 35 52.5045V57.5057C35 58.8873 36.12 60.0063 37.5 60.0063H42.5C43.88 60.0063 45 58.8873 45 57.5057V52.5045C45 51.1255 43.88 50.0039 42.5 50.0039ZM42.5 30.0005H37.5C36.12 30.0005 35 31.1208 35 32.5011V37.5023C35 38.8826 36.12 40.0028 37.5 40.0028H42.5C43.88 40.0028 45 38.8826 45 37.5023V32.5011C45 31.1195 43.88 30.0005 42.5 30.0005ZM22.5 30.0005H17.5C16.12 30.0005 15 31.1208 15 32.5011V37.5023C15 38.8826 16.12 40.0028 17.5 40.0028H22.5C23.88 40.0028 25 38.8826 25 37.5023V32.5011C25 31.1195 23.88 30.0005 22.5 30.0005ZM22.5 50.0039H17.5C16.12 50.0039 15 51.1242 15 52.5045V57.5057C15 58.8873 16.12 60.0063 17.5 60.0063H22.5C23.88 60.0063 25 58.8873 25 57.5057V52.5045C25 51.1255 23.88 50.0039 22.5 50.0039Z" fill="black"/>
</svg>
