<svg width="27" height="27" viewBox="0 0 27 27" fill="none" xmlns="http://www.w3.org/2000/svg">
<path d="M22.5 3.375H4.5C4.20163 3.375 3.91548 3.49353 3.7045 3.7045C3.49353 3.91548 3.375 4.20163 3.375 4.5V22.5C3.375 22.7984 3.49353 23.0845 3.7045 23.2955C3.91548 23.5065 4.20163 23.625 4.5 23.625H14.1919V15.795H11.5616V12.7294H14.1919V10.4794C14.1919 7.86375 15.7894 6.43838 18.1294 6.43838C18.9157 6.43613 19.7032 6.47662 20.4862 6.55875V9.28125H18.8719C17.6029 9.28125 17.3554 9.8865 17.3554 10.7719V12.7238H20.3895L19.9958 15.7894H17.3542V23.625H22.5C22.7984 23.625 23.0845 23.5065 23.2955 23.2955C23.5065 23.0845 23.625 22.7984 23.625 22.5V4.5C23.625 4.20163 23.5065 3.91548 23.2955 3.7045C23.0845 3.49353 22.7984 3.375 22.5 3.375V3.375Z" fill="white"/>
</svg>
