<svg width="80" height="80" viewBox="0 0 80 80" fill="none" xmlns="http://www.w3.org/2000/svg">
<path d="M23.4662 10.0258H12.4887C11.033 10.0258 9.63695 10.5553 8.60761 11.4978C7.57828 12.4404 7 13.7187 7 15.0516V70.3356C7 71.6686 7.57828 72.9469 8.60761 73.8894C9.63695 74.8319 11.033 75.3614 12.4887 75.3614H67.3759C68.8316 75.3614 70.2277 74.8319 71.2571 73.8894C72.2864 72.9469 72.8647 71.6686 72.8647 70.3356V15.0516C72.8647 13.7187 72.2864 12.4404 71.2571 11.4978C70.2277 10.5553 68.8316 10.0258 67.3759 10.0258H56.3985" stroke="black" stroke-width="5.71429" stroke-linecap="round" stroke-linejoin="round"/>
<path d="M34.4436 30.1291H61.8872M34.4436 45.2065H61.8872M34.4436 60.284H61.8872M17.9774 30.1291H23.4661M17.9774 45.2065H23.4661M17.9774 60.284H23.4661M28.9549 5H50.9097C52.3654 5 53.7615 5.5295 54.7909 6.47203C55.8202 7.41455 56.3985 8.69289 56.3985 10.0258C56.3985 11.3587 55.8202 12.6371 54.7909 13.5796C53.7615 14.5221 52.3654 15.0516 50.9097 15.0516H28.9549C27.4992 15.0516 26.1031 14.5221 25.0737 13.5796C24.0444 12.6371 23.4661 11.3587 23.4661 10.0258C23.4661 8.69289 24.0444 7.41455 25.0737 6.47203C26.1031 5.5295 27.4992 5 28.9549 5V5Z" stroke="black" stroke-width="5.71429" stroke-linecap="round" stroke-linejoin="round"/>
</svg>
