<svg width="81" height="81" viewBox="0 0 81 81" fill="none" xmlns="http://www.w3.org/2000/svg">
<path d="M80.9375 25.1111C80.9331 23.5701 80.3215 22.0931 79.2354 21.0002L60.678 2.43902C59.5827 1.35874 58.1063 0.753113 56.568 0.753113C55.0298 0.753113 53.5533 1.35874 52.458 2.43902L2.63963 52.2677C2.07534 52.8342 1.63682 53.5134 1.35265 54.2609H1.31114C1.0637 54.9251 0.937154 55.6282 0.937501 56.3371V74.9398C0.937501 76.4816 1.54985 77.9602 2.63984 79.0504C3.72983 80.1406 5.20817 80.7531 6.74964 80.7531H76.4954C77.156 80.7531 77.7896 80.4906 78.2567 80.0234C78.7238 79.5562 78.9863 78.9224 78.9863 78.2617C78.9863 77.6009 78.7238 76.9672 78.2567 76.5C77.7896 76.0327 77.156 75.7702 76.4954 75.7702H32.6967L79.2354 29.2219C80.3215 28.1291 80.9331 26.652 80.9375 25.1111V25.1111ZM18.5815 66.635L54.9074 30.3016L63.0029 38.3987L26.677 74.7321L18.5815 66.635ZM15.0527 63.1054L6.95722 55.0083L43.2831 18.6749L51.3786 26.772L15.0527 63.1054ZM5.91934 74.9398V61.0293L20.6573 75.7702H6.74964C6.52943 75.7702 6.31824 75.6827 6.16253 75.527C6.00682 75.3713 5.91934 75.16 5.91934 74.9398ZM75.7066 25.6924L66.5317 34.8692L46.8119 15.1453L55.9868 5.96855C56.0607 5.888 56.1505 5.82369 56.2506 5.77969C56.3506 5.7357 56.4587 5.71298 56.568 5.71298C56.6773 5.71298 56.7854 5.7357 56.8855 5.77969C56.9855 5.82369 57.0753 5.888 57.1492 5.96855L75.7066 24.5297C75.7871 24.6036 75.8514 24.6935 75.8954 24.7936C75.9394 24.8936 75.9621 25.0018 75.9621 25.1111C75.9621 25.2204 75.9394 25.3285 75.8954 25.4286C75.8514 25.5287 75.7871 25.6185 75.7066 25.6924V25.6924Z" fill="black"/>
</svg>
