<svg width="19" height="19" viewBox="0 0 19 19" fill="none" xmlns="http://www.w3.org/2000/svg">
<path d="M2.54815 3.38914C2.49294 3.33394 2.44915 3.2684 2.41928 3.19627C2.3894 3.12414 2.37402 3.04684 2.37402 2.96877C2.37402 2.8907 2.3894 2.81339 2.41928 2.74126C2.44915 2.66913 2.49294 2.6036 2.54815 2.54839C2.60335 2.49319 2.66889 2.4494 2.74102 2.41952C2.81315 2.38964 2.89045 2.37427 2.96852 2.37427C3.04659 2.37427 3.1239 2.38964 3.19603 2.41952C3.26816 2.4494 3.33369 2.49319 3.3889 2.54839L9.49977 8.66046L15.6106 2.54839C15.6659 2.49319 15.7314 2.4494 15.8035 2.41952C15.8756 2.38964 15.953 2.37427 16.031 2.37427C16.1091 2.37427 16.1864 2.38964 16.2585 2.41952C16.3307 2.4494 16.3962 2.49319 16.4514 2.54839C16.5066 2.6036 16.5504 2.66913 16.5803 2.74126C16.6101 2.81339 16.6255 2.8907 16.6255 2.96877C16.6255 3.04684 16.6101 3.12414 16.5803 3.19627C16.5504 3.2684 16.5066 3.33394 16.4514 3.38914L10.3393 9.50002L16.4514 15.6109C16.5066 15.6661 16.5504 15.7316 16.5803 15.8038C16.6101 15.8759 16.6255 15.9532 16.6255 16.0313C16.6255 16.1093 16.6101 16.1866 16.5803 16.2588C16.5504 16.3309 16.5066 16.3964 16.4514 16.4516C16.3962 16.5068 16.3307 16.5506 16.2585 16.5805C16.1864 16.6104 16.1091 16.6258 16.031 16.6258C15.953 16.6258 15.8756 16.6104 15.8035 16.5805C15.7314 16.5506 15.6659 16.5068 15.6106 16.4516L9.49977 10.3396L3.3889 16.4516C3.33369 16.5068 3.26816 16.5506 3.19603 16.5805C3.1239 16.6104 3.04659 16.6258 2.96852 16.6258C2.89045 16.6258 2.81315 16.6104 2.74102 16.5805C2.66889 16.5506 2.60335 16.5068 2.54815 16.4516C2.49294 16.3964 2.44915 16.3309 2.41928 16.2588C2.3894 16.1866 2.37402 16.1093 2.37402 16.0313C2.37402 15.9532 2.3894 15.8759 2.41928 15.8038C2.44915 15.7316 2.49294 15.6661 2.54815 15.6109L8.66021 9.50002L2.54815 3.38914Z" fill="black"/>
</svg>
